<?xml version="1.0" encoding="UTF-8" standalone="no"?>
<!-- Created with Inkscape (http://www.inkscape.org/) -->

<svg
   xmlns:dc="http://purl.org/dc/elements/1.1/"
   xmlns:cc="http://creativecommons.org/ns#"
   xmlns:rdf="http://www.w3.org/1999/02/22-rdf-syntax-ns#"
   xmlns:svg="http://www.w3.org/2000/svg"
   xmlns="http://www.w3.org/2000/svg"
   xmlns:sodipodi="http://sodipodi.sourceforge.net/DTD/sodipodi-0.dtd"
   xmlns:inkscape="http://www.inkscape.org/namespaces/inkscape"
   width="64"
   height="64"
   viewBox="0 0 16.933333 16.933333"
   version="1.1"
   id="svg8"
   sodipodi:docname="no-mask.svg"
   inkscape:version="0.92.5 (2060ec1f9f, 2020-04-08)">
  <defs
     id="defs2" />
  <sodipodi:namedview
     id="base"
     pagecolor="#ffffff"
     bordercolor="#666666"
     borderopacity="1.0"
     inkscape:pageopacity="0.0"
     inkscape:pageshadow="2"
     inkscape:zoom="7.9195959"
     inkscape:cx="59.253029"
     inkscape:cy="39.285896"
     inkscape:document-units="mm"
     inkscape:current-layer="layer1"
     showgrid="false"
     units="px"
     inkscape:window-width="1872"
     inkscape:window-height="1043"
     inkscape:window-x="726"
     inkscape:window-y="1440"
     inkscape:window-maximized="1" />
  <metadata
     id="metadata5">
    <rdf:RDF>
      <cc:Work
         rdf:about="">
        <dc:format>image/svg+xml</dc:format>
        <dc:type
           rdf:resource="http://purl.org/dc/dcmitype/StillImage" />
        <dc:title></dc:title>
      </cc:Work>
    </rdf:RDF>
  </metadata>
  <g
     inkscape:label="Layer 1"
     inkscape:groupmode="layer"
     id="layer1"
     transform="translate(0,-280.06667)">
    <path
       style="stroke-width:0.99999994"
       d="M 2.5351562 16.552734 L 2.5351562 45.507812 L 20.064453 35.386719 A 12.410714 12.410714 0 0 1 19.589844 32 A 12.410714 12.410714 0 0 1 32 19.589844 A 12.410714 12.410714 0 0 1 40.902344 23.353516 L 52.683594 16.552734 L 2.5351562 16.552734 z M 61.464844 18.492188 L 43.935547 28.613281 A 12.410714 12.410714 0 0 1 44.410156 32 A 12.410714 12.410714 0 0 1 32 44.410156 A 12.410714 12.410714 0 0 1 23.097656 40.646484 L 11.316406 47.447266 L 61.464844 47.447266 L 61.464844 18.492188 z "
       transform="matrix(0.26458333,0,0,0.26458333,0,280.06667)"
       id="rect10" />
    <rect
       style="fill:#000000;fill-opacity:1;stroke-width:0.30957186"
       id="rect842"
       width="18.489174"
       height="1.0488887"
       x="-146.78654"
       y="253.91417"
       transform="matrix(0.867213,-0.49793736,0.50206548,0.86482961,0,0)" />
  </g>
</svg>
